<?xml version="1.0" encoding="UTF-8" standalone="no"?>
<!-- Created with Inkscape (http://www.inkscape.org/) -->

<svg
   width="16"
   height="16"
   id="svg2"
   version="1.1"
   xmlns:xlink="http://www.w3.org/1999/xlink"
   xmlns="http://www.w3.org/2000/svg"
   xmlns:svg="http://www.w3.org/2000/svg"
   xmlns:rdf="http://www.w3.org/1999/02/22-rdf-syntax-ns#"
   xmlns:cc="http://creativecommons.org/ns#"
   xmlns:dc="http://purl.org/dc/elements/1.1/">
  <defs
     id="defs4">
    <linearGradient
       id="lefthandle-stroke-3">
      <stop
         style="stop-color:#7395b8;stop-opacity:1;"
         offset="0"
         id="lefthandle-stroke-stop0" />
      <stop
         style="stop-color:#125f9c;stop-opacity:1"
         offset="1"
         id="lefthandle-stroke-stop1" />
    </linearGradient>
    <linearGradient
       id="righthandle-stroke-6">
      <stop
         style="stop-color:#7395b8;stop-opacity:1;"
         offset="0"
         id="righthandle-stroke-stop0" />
      <stop
         style="stop-color:#125f9c;stop-opacity:1"
         offset="1"
         id="righthandle-stroke-stop1" />
    </linearGradient>
    <linearGradient
       xlink:href="#lefthandle-stroke-3"
       id="lefthandle-stroke"
       gradientUnits="userSpaceOnUse"
       x1="-17.093752"
       y1="9.625"
       x2="-13.312501"
       y2="12.4375" />
    <linearGradient
       xlink:href="#righthandle-stroke-6"
       id="righthandle-stroke"
       gradientUnits="userSpaceOnUse"
       x1="-17.093752"
       y1="9.625"
       x2="-13.312501"
       y2="12.4375"
       gradientTransform="translate(27.726339,1036.5644)" />
  </defs>
  <metadata
     id="metadata7">
    <rdf:RDF>
      <cc:Work
         rdf:about="">
        <dc:format>image/svg+xml</dc:format>
        <dc:type
           rdf:resource="http://purl.org/dc/dcmitype/StillImage" />
        <dc:title />
      </cc:Work>
    </rdf:RDF>
  </metadata>
  <g
     id="layer1"
     style="display:inline"
     transform="translate(0,-1036.3622)">
    <g
       id="g4857"
       transform="matrix(0.75134134,0.65047808,-0.62287103,0.78464248,652.4173,219.65493)">
      <path
         id="leftblade"
         d="m 6.312499,1045.9559 2.125,-3 2.500001,-5.875 c 0,0 0.71875,1.4063 0.5,2.0313 -0.21875,0.625 -2.531251,6.0312 -2.531251,6.0312 l -2,1.9688 z"
         style="fill:#79879d;fill-opacity:1;stroke:#4d607b;stroke-width:0.5;stroke-linecap:butt;stroke-linejoin:miter;stroke-miterlimit:4;stroke-opacity:1;stroke-dasharray:none">
        <title
           id="title3215">leftblade</title>
      </path>
      <path
         id="rightblade"
         d="m 11.317555,1045.6254 -1.963626,-2.6695 -2.500001,-5.875 c 0,0 -0.71875,1.4063 -0.5,2.0313 0.21875,0.625 2.531251,6.0312 2.531251,6.0312 l 1.838626,1.6383 z"
         style="display:inline;fill:#79879d;fill-opacity:1;stroke:#4d607b;stroke-width:0.5;stroke-linecap:butt;stroke-linejoin:miter;stroke-miterlimit:4;stroke-dasharray:none;stroke-opacity:1">
        <title
           id="title3213">rightblade</title>
      </path>
      <path
         transform="matrix(1.3529412,0,0,1.3529412,24.013328,1033.8898)"
         d="m -10.906251,7.0937495 a 0.265625,0.265625 0 0 1 -0.265625,0.265625 0.265625,0.265625 0 0 1 -0.265625,-0.265625 0.265625,0.265625 0 0 1 0.265625,-0.265625 0.265625,0.265625 0 0 1 0.265625,0.265625 z"
         id="pin"
         style="fill:#4d607b;fill-opacity:1;stroke:none">
        <title
           id="title3211">pin</title>
      </path>
      <path
         transform="translate(20,1036.706)"
         d="m -13.187501,10.875 a 2.03125,2.1875 0 0 1 -2.03125,2.1875 2.03125,2.1875 0 0 1 -2.03125,-2.1875 2.03125,2.1875 0 0 1 2.03125,-2.1875 2.03125,2.1875 0 0 1 2.03125,2.1875 z"
         id="lefthandle"
         style="fill:none;stroke:url(#lefthandle-stroke);stroke-width:1;stroke-linecap:round;stroke-linejoin:round;stroke-miterlimit:4;stroke-opacity:1;stroke-dasharray:none;stroke-dashoffset:0">
        <title
           id="title3207">lefthandle</title>
      </path>
      <ellipse
         id="righthandle"
         style="display:inline;fill:none;stroke:url(#righthandle-stroke);stroke-width:1;stroke-linecap:round;stroke-linejoin:round;stroke-miterlimit:4;stroke-dasharray:none;stroke-dashoffset:0;stroke-opacity:1"
         cx="12.507588"
         cy="1047.4393"
         rx="2.03125"
         ry="2.1875">
        <title
           id="title3209">righthandle</title>
      </ellipse>
    </g>
  </g>
</svg>
