<?xml version="1.0" encoding="UTF-8" standalone="no"?>
<!-- Created with Inkscape (http://www.inkscape.org/) -->

<svg
   width="16"
   height="16"
   id="svg2"
   version="1.1"
   xmlns:xlink="http://www.w3.org/1999/xlink"
   xmlns="http://www.w3.org/2000/svg"
   xmlns:svg="http://www.w3.org/2000/svg"
   xmlns:rdf="http://www.w3.org/1999/02/22-rdf-syntax-ns#"
   xmlns:cc="http://creativecommons.org/ns#"
   xmlns:dc="http://purl.org/dc/elements/1.1/">
  <defs
     id="defs4">
    <linearGradient
       xlink:href="#linearGradient5255-5"
       id="linearGradient3807"
       gradientUnits="userSpaceOnUse"
       gradientTransform="matrix(1.3823084,0,0,0.98071248,-6.1929306,20.044209)"
       x1="22.878796"
       y1="1037.2108"
       x2="22.878796"
       y2="1051.027" />
    <linearGradient
       id="linearGradient5255-5">
      <stop
         style="stop-color:#f9fafc;stop-opacity:1"
         offset="0"
         id="stop5257-3" />
      <stop
         style="stop-color:#d2e9f7;stop-opacity:1;"
         offset="1"
         id="stop5259-8" />
    </linearGradient>
    <linearGradient
       xlink:href="#linearGradient5105-8"
       id="linearGradient3809"
       gradientUnits="userSpaceOnUse"
       gradientTransform="matrix(1.3823084,0,0,0.98071248,20.427518,20.044209)"
       x1="9.1708698"
       y1="1036.9434"
       x2="9.1708698"
       y2="1051.6799" />
    <linearGradient
       id="linearGradient5105-8">
      <stop
         style="stop-color:#bfb688;stop-opacity:1;"
         offset="0"
         id="stop5107-0" />
      <stop
         style="stop-color:#8693ae;stop-opacity:1"
         offset="1"
         id="stop5109-6" />
    </linearGradient>
    <linearGradient
       xlink:href="#linearGradient3840"
       id="linearGradient3846"
       x1="1035.5981"
       y1="28.695572"
       x2="1035.5981"
       y2="21.128925"
       gradientUnits="userSpaceOnUse" />
    <linearGradient
       id="linearGradient3840">
      <stop
         style="stop-color:#5c6884;stop-opacity:1;"
         offset="0"
         id="stop3842" />
      <stop
         style="stop-color:#a09860;stop-opacity:1;"
         offset="1"
         id="stop3844" />
    </linearGradient>
    <linearGradient
       xlink:href="#linearGradient4903-7-7-52-3"
       id="linearGradient3027"
       gradientUnits="userSpaceOnUse"
       gradientTransform="matrix(0.72160234,0,0,0.72160234,246.54659,-1265.7937)"
       x1="733.18365"
       y1="727.80212"
       x2="738.31683"
       y2="732.9353" />
    <linearGradient
       id="linearGradient4903-7-7-52-3">
      <stop
         id="stop4905-2-3-9-2"
         offset="0"
         style="stop-color:#ffe69f;stop-opacity:1" />
      <stop
         style="stop-color:#ffcb2f;stop-opacity:1"
         offset="0.41477016"
         id="stop4911-4-9-2-1" />
      <stop
         id="stop4907-3-6-1-6"
         offset="1"
         style="stop-color:#ffffff;stop-opacity:1" />
    </linearGradient>
    <linearGradient
       y2="471.69949"
       x2="385.98376"
       y1="462.57028"
       x1="385.98376"
       gradientUnits="userSpaceOnUse"
       id="linearGradient3048"
       xlink:href="#linearGradient3852-1" />
    <linearGradient
       id="linearGradient3852-1">
      <stop
         style="stop-color:#ff4949;stop-opacity:1"
         offset="0"
         id="stop3854-7-7" />
      <stop
         style="stop-color:#cb3e44;stop-opacity:1"
         offset="1"
         id="stop3856-4" />
    </linearGradient>
  </defs>
  <metadata
     id="metadata7">
    <rdf:RDF>
      <cc:Work
         rdf:about="">
        <dc:format>image/svg+xml</dc:format>
        <dc:type
           rdf:resource="http://purl.org/dc/dcmitype/StillImage" />
        <dc:title />
      </cc:Work>
    </rdf:RDF>
  </metadata>
  <g
     id="layer1"
     style="display:inline"
     transform="translate(0,-1036.3622)">
    <g
       transform="translate(0.109256,0.0133597)"
       style="display:inline"
       id="g3854">
      <g
         transform="matrix(0.9346781,0,0,0.9346781,-14.571811,69.044514)"
         id="g8472"
         style="display:inline">
        <g
           id="g8421"
           transform="translate(15.600543,0)" />
        <g
           transform="matrix(0,1,1,0,-1019.4029,1019.4029)"
           id="g10285">
          <g
             transform="matrix(0.93769259,0,0,0.87333542,0.96774196,131.10119)"
             id="g3797">
            <path
               id="rect4172-1"
               d="m 16.096979,1035.5285 15.961689,0 0,16.5683 c -1.062971,-0.5903 -2.773231,-4.1408 -6.924462,-2.3593 -4.15123,1.7815 -7.453027,3.3668 -9.037227,-0.9619 z"
               style="fill:url(#linearGradient3807);fill-opacity:1;stroke:url(#linearGradient3809);stroke-width:1.18227136;stroke-linecap:butt;stroke-linejoin:miter;stroke-miterlimit:4;stroke-opacity:1;stroke-dasharray:none;stroke-dashoffset:0;display:inline" />
            <rect
               transform="matrix(0,1.2250586,1.1409785,0,15.516843,1034.9883)"
               y="1.0312505"
               x="1.0625"
               height="13"
               width="0.9375"
               id="rect3852"
               style="fill:#d0f0f8;fill-opacity:1;stroke:none" />
            <path
               style="fill:#adc1e1;fill-opacity:1;stroke:#a8bcde;stroke-width:1.1246587px;stroke-linecap:butt;stroke-linejoin:miter;stroke-opacity:1"
               d="m 24.021969,1036.2952 0,14.4407"
               id="path18345" />
            <path
               style="fill:#adc1e1;fill-opacity:1;stroke:#a8bcde;stroke-width:1.123523px;stroke-linecap:butt;stroke-linejoin:miter;stroke-opacity:1"
               d="m 16.661877,1046.7076 15.957858,0"
               id="path18347" />
            <rect
               style="fill:url(#linearGradient3846);fill-opacity:1;stroke:none"
               id="rect21127"
               width="1.3373588"
               height="17.151628"
               x="1035.0265"
               y="15.551206"
               transform="matrix(0,1,1,0,0,0)"
               ry="0" />
            <rect
               transform="scale(1,-1)"
               style="fill:#5c6884;fill-opacity:1;stroke:none;display:inline"
               id="rect21127-6"
               width="1.2099167"
               height="17.228739"
               x="31.455427"
               y="-1052.2151"
               ry="0" />
          </g>
          <rect
             style="fill:none;stroke:none"
             id="rect4942"
             width="1.4184428"
             height="1.069887"
             x="22.741739"
             y="1042.6464" />
          <rect
             style="fill:none;stroke:none;display:inline"
             id="rect4942-1"
             width="1.4184427"
             height="1.069887"
             x="22.741737"
             y="1044.7861" />
          <g
             transform="matrix(0.8824479,0,0,0.82626422,3.9709262,181.04934)"
             id="g20348">
            <rect
               y="1043.4609"
               x="25.572638"
               height="1.0125971"
               width="1.4224106"
               id="rect4942-1-7"
               style="fill:none;stroke:none;display:inline" />
            <path
               id="rect4880"
               d="m 775.65555,-741.23757 2.4881,0.009 c 0.56521,0.002 2.02427,1.52746 2.02427,1.52746 l -3.81402,3.85866 c 0,0 -1.58283,-1.38008 -1.6084,-1.94336 l -0.1104,-2.43162 c -0.0256,-0.56328 0.45525,-1.02257 1.02045,-1.02045 z"
               style="font-size:13.58917427px;font-style:normal;font-weight:normal;line-height:125%;letter-spacing:0px;word-spacing:0px;color:#000000;fill:url(#linearGradient3027);fill-opacity:1;fill-rule:nonzero;stroke:#e28d22;stroke-width:1.2134217;stroke-linecap:butt;stroke-linejoin:miter;stroke-miterlimit:4;stroke-opacity:1;stroke-dasharray:none;stroke-dashoffset:0;marker:none;visibility:visible;display:inline;overflow:visible;enable-background:accumulate;font-family:Sans"
               transform="matrix(0.72724267,0.68638043,0.72724267,-0.68638043,0,0)" />
          </g>
          <g
             id="layer1-8"
             style="fill:#d34a50;fill-opacity:1;stroke:#a81d24;stroke-opacity:1;display:inline"
             transform="matrix(0,1.0698871,1.0698871,0,-1093.1782,1054.4736)">
            <g
               transform="matrix(0.27903303,0,0,0.27903303,-100.53208,912.07901)"
               style="fill:#d34a50;fill-opacity:1;stroke:#a81d24;stroke-opacity:1;display:inline"
               id="g11331-3-1-1">
              <g
                 id="g13408-8"
                 style="fill:#d34a50;fill-opacity:1;stroke:#a81d24;stroke-opacity:1" />
            </g>
            <g
               transform="matrix(-1,0,0,1,16.12959,8.0140628)"
               style="fill:#d34a50;fill-opacity:1;stroke:#a81d24;stroke-opacity:1;display:inline"
               id="g6124-3">
              <g
                 transform="scale(-1,1)"
                 style="font-size:13.58917427px;font-style:normal;font-weight:normal;line-height:125%;letter-spacing:0px;word-spacing:0px;fill:#d34a50;fill-opacity:1;stroke:#a81d24;stroke-opacity:1;font-family:Sans"
                 id="text6430" />
              <g
                 transform="scale(-1,1)"
                 style="font-size:13.58917427px;font-style:normal;font-weight:normal;line-height:125%;letter-spacing:0px;word-spacing:0px;fill:#d34a50;fill-opacity:1;stroke:#a81d24;stroke-opacity:1;display:inline;font-family:Sans"
                 id="g6438" />
            </g>
          </g>
          <path
             style="font-size:13.58917427px;font-style:normal;font-weight:normal;line-height:125%;letter-spacing:0px;word-spacing:0px;fill:url(#linearGradient3048);fill-opacity:1;stroke:#c91d24;stroke-width:5.03605366;stroke-linecap:round;stroke-linejoin:round;stroke-miterlimit:4;stroke-opacity:1;stroke-dasharray:none;stroke-dashoffset:0;display:inline;font-family:Sans"
             id="path10796-2-6-2-1"
             d="m 398.75,468.23718 a 10.625,10.625 0 0 1 -10.625,10.625 10.625,10.625 0 0 1 -10.625,-10.625 10.625,10.625 0 0 1 10.625,-10.625 10.625,10.625 0 0 1 10.625,10.625 z"
             transform="matrix(0,0.21336007,0.20391989,0,-75.150605,958.20085)" />
        </g>
      </g>
    </g>
    <g
       id="g3182"
       transform="translate(-10.25,-15.875)">
      <rect
         y="1059.2216"
         x="10.28125"
         height="9.03125"
         width="8.062501"
         id="rect3819"
         style="fill:#ffffff;fill-opacity:1;stroke:none;display:inline" />
      <g
         transform="matrix(0.9346781,0,0,0.9346781,-13.853061,87.216372)"
         id="g3047"
         style="display:inline">
        <rect
           style="fill:#d8424f;fill-opacity:1;stroke:none;display:inline"
           id="rect4244"
           width="7.4892092"
           height="8.5590963"
           x="25.820986"
           y="1041.0391" />
        <path
           style="color:#000000;font-style:normal;font-variant:normal;font-weight:normal;font-stretch:normal;font-size:7.68999243px;line-height:125%;font-family:Sans;text-indent:0;text-align:start;text-decoration:none;text-decoration-line:none;letter-spacing:0px;word-spacing:0px;text-transform:none;direction:ltr;block-progression:tb;writing-mode:lr-tb;baseline-shift:baseline;text-anchor:start;display:inline;overflow:visible;visibility:visible;fill:#ffffff;fill-opacity:1;fill-rule:nonzero;stroke:none;stroke-width:0.27519909;marker:none;enable-background:accumulate"
           d="m 26.856252,1043.165 0,0.1267 0,0.814 0,0.1267 0.148131,0 0.444393,0 1.407245,1.1177 -1.444277,1.008 -0.407361,0 -0.148131,0 0,0.1266 0,0.8259 0,0.1267 0.148131,0 1.848497,0 0.14813,0 0,-0.1267 0,-0.8259 0,-0.1266 -0.14813,0 0.669731,-0.3113 0.693373,0.3113 -0.148131,0 0,0.1266 0,0.8259 0,0.1267 0.148131,0 1.824856,0 0.14813,0 0,-0.1267 0,-0.8259 0,-0.1266 -0.14813,0 -0.370329,0 -1.481311,-1.0397 1.370213,-1.086 0.481427,0 0.14813,0 0,-0.1267 0,-0.814 0,-0.1267 -0.14813,0 -1.824856,0 -0.148131,0 0,0.1267 0,0.814 0,0.1267 0.07407,0 -0.619308,0.421 -0.607485,-0.421 0.07407,0 0,-0.1267 0,-0.814 0,-0.1267 -0.148129,0 -1.836676,0 z"
           id="path4187" />
      </g>
    </g>
  </g>
</svg>
